<svg xmlns="http://www.w3.org/2000/svg" viewBox="0 0 1024 1024">
  <path fill="#87A330" fill-rule="evenodd" d="M753.535 517.319c13.858 0 23.638-13.507 19.337-26.695-5.224-16.056-15.195-38.451-34.182-64.574-23.191-31.888-52.913-47.753-69.224-54.57-7.295-3.058-12.105-10.162-12.392-18.062-1.306-36.062-7.964-135.804-41.923-209.743-26.154-56.896-67.026-102.005-88.529-123.38-7.901-7.9-20.707-7.9-28.639 0-21.472 21.375-62.344 66.484-88.498 123.38-33.959 73.939-40.648 173.681-41.955 209.743-.287 7.9-5.065 15.004-12.36 18.062-16.31 6.817-46.032 22.682-69.224 54.57-18.986 26.123-28.958 48.518-34.182 64.574-4.301 13.188 5.479 26.695 19.337 26.695h123.667c11.245 0 20.356 9.111 20.356 20.357 0 11.213 9.111 20.324 20.357 20.324h153.675c11.246 0 20.357-9.111 20.357-20.324 0-11.246 9.111-20.357 20.356-20.357h123.667"/>
  <path fill="#CAD593" fill-rule="evenodd" d="m891.161 192.722-152.722-88.17c11.666 30.531 21.746 64.617 29.41 102.589l86.241 49.786c23.9 13.799 45.669 51.504 45.669 79.105v341.715c0 27.599-21.769 65.303-45.669 79.102l-30.781 17.776c-114.498 66.103-231.119-84.03-248.714-197.227a302.762 302.762 0 0 0-61.931-6.4 302.574 302.574 0 0 0-62.272 6.469c-17.636 113.185-134.227 263.247-248.703 197.158l-30.783-17.776c-23.906-13.799-45.67-51.503-45.67-79.102V336.032c0-27.601 21.764-65.306 45.67-79.105l86.633-50.03c7.684-37.986 17.776-72.075 29.459-102.609l-153.161 88.434C87.44 219.509 51.1 282.458 51.1 336.032v341.715c0 53.571 36.34 116.523 82.737 143.304l295.918 170.857c23.197 13.392 52.968 20.092 82.74 20.092 29.769 0 59.543-6.7 82.737-20.092l295.929-170.857c46.392-26.786 82.737-89.733 82.737-143.304V336.032c0-53.574-36.345-116.52-82.737-143.31Z"/>
</svg>
